<svg width="1086" height="1414" viewBox="0 0 1086 1414" fill="none" xmlns="http://www.w3.org/2000/svg">
<path fill-rule="evenodd" clip-rule="evenodd" d="M435 165V1.53864e-05L787 0V139H1086V213H1060V259H1086V388H1012V334H966V388H940V433.473L940.083 433.556L940 433.64V434H939.64L908 465.64V466H907.64L907.556 466.083L907.473 466H862V530H798V576H836V613H882V635H836V672H738V576H776V530H712V464.083H675.556L656.083 483.556V520H666V659H625V716H697V882H625V939H666V989H723V971H798V1414H723V1387.5H666V1414H367V1340H398V1283H326V1117H398V1060H326V939H341V882H269V716H398V659H356V586H299V612H0V538H31L31 492H0L-6.55671e-06 342H84V356H130V243H161.083V197.61L161 197.527L161.083 197.444V197.083H161.444L193.083 165.444V165.083H193.444L193.527 165L193.61 165.083H239V101L389 101V165L435 165ZM666 1365.5H723V1011H666V1060H561V939H603V882H531V716H603V659H561V520H634.083V474.61L634 474.527L634.083 474.444V474.083H634.444L666.083 442.444V442.083H666.444L666.527 442L666.61 442.083H712V380H862V444H898.527L918 424.527V388H892V259H966V312H1012V259H1038V213H787L787 352L435 352L435 187L389 187V251H239V187.083H202.556L183.083 206.556V243H214V393H130V378H84L84 492H53L53 538H299V564H356V538H461V659H420V716H435V882H363V939H431V1060H420V1117H492V1283H420V1340H666V1365.5ZM533 254V98L689 98V254H533Z" fill="#696969"/>
</svg>
